# xmcd
#
# Track frame offsets:
#	150
#	16597
#	31622
#	47862
#	64985
#	80290
#	92595
#	103952
#	120502
#	136985
#	152407
#	163010
#	178537
#
# Disc length: 2595 seconds
#
# Revision: 0
# Processed by: cddbd v1.5.2PL0 Copyright (c) Steve Scherf et al.
# Submitted via: audiograbber 1.83.01
#
DISCID=960a210d
DTITLE=Prescott Brown - Already Restless
DYEAR=1994
DGENRE=Country
TTITLE0=Thirty Nine Days
TTITLE1=Broken String of Pearls
TTITLE2=Heart of Gold
TTITLE3=Already Restless
TTITLE4=If He's Ever Near
TTITLE5=There Ain't Much You Can Do About Love
TTITLE6=Talkin' Love
TTITLE7=Happy Ever After
TTITLE8=Nothing a Little Love Can't Take Care Of
TTITLE9=The Heart of Love
TTITLE10=New Years Eve 1999
TTITLE11=There You Go
TTITLE12=All Or Nothin'
EXTD=
EXTT0=
EXTT1=
EXTT2=
EXTT3=
EXTT4=
EXTT5=
EXTT6=
EXTT7=
EXTT8=
EXTT9=
EXTT10=
EXTT11=
EXTT12=
PLAYORDER=
